<svg viewBox="0 0 40 40" fill="none" xmlns="http://www.w3.org/2000/svg">
  <defs>
    <linearGradient id="brand-gradient" x1="0%" y1="0%" x2="100%" y2="100%">
      <stop offset="0%" style="stop-color:#FF6B35;stop-opacity:1" />
      <stop offset="100%" style="stop-color:#1E3A8A;stop-opacity:1" />
    </linearGradient>
  </defs>

  <!-- Back layer (subtle depth) -->
  <path d="M10 8h18c1.1 0 2 .9 2 2v20c0 1.1-.9 2-2 2H10c-1.1 0-2-.9-2-2V10c0-1.1.9-2 2-2z" fill="url(#brand-gradient)" opacity="0.3"/>

  <!-- Middle layer -->
  <path d="M12 5h18c1.1 0 2 .9 2 2v20c0 1.1-.9 2-2 2H12c-1.1 0-2-.9-2-2V7c0-1.1.9-2 2-2z" fill="url(#brand-gradient)" opacity="0.6"/>

  <!-- Front layer with document fold -->
  <path d="M14 2h14l6 6v18c0 1.1-.9 2-2 2H14c-1.1 0-2-.9-2-2V4c0-1.1.9-2 2-2z" fill="url(#brand-gradient)"/>
  <path d="M28 2v6h6" stroke="white" stroke-width="1.5" stroke-linecap="round" stroke-linejoin="round" opacity="0.8"/>

  <!-- Wisdom crown at top -->
  <path d="M20 1l2 3h-4z" fill="#F59E0B"/>

  <!-- PDF text mark -->
  <text x="20" y="21" font-family="Arial, sans-serif" font-size="8" font-weight="bold" fill="white" text-anchor="middle">PDF</text>
</svg>
